<svg xmlns="http://www.w3.org/2000/svg" viewBox="0 0 64 64">
  <defs><linearGradient id="g" x1="0" y1="0" x2="1" y2="1">
    <stop offset="0" stop-color="#e0b073"/><stop offset="1" stop-color="#c99245"/></linearGradient></defs>
  <rect rx="14" ry="14" width="64" height="64" fill="#1a1917"/>
  <g transform="translate(6,9)">
    <rect x="10" y="28" width="26" height="10" rx="5" fill="url(#g)"/>
    <rect x="6" y="18" width="34" height="13" rx="6" fill="#00000055" stroke="#ffffff22" stroke-width="1"/>
    <path d="M36 21c4 0 7 2 7 6s-3 6-7 6h-3" fill="none" stroke="url(#g)" stroke-width="3" stroke-linecap="round"/>
    <path d="M16 14c0 4 4 4 4 8" stroke="#e9d3b1" stroke-opacity=".9" stroke-width="2" fill="none" stroke-linecap="round"/>
    <path d="M22 12c0 5 5 5 5 10" stroke="#e9d3b1" stroke-opacity=".8" stroke-width="2" fill="none" stroke-linecap="round"/>
    <path d="M28 14c0 4 4 4 4 8" stroke="#e9d3b1" stroke-opacity=".7" stroke-width="2" fill="none" stroke-linecap="round"/>
  </g>
  <g fill="url(#g)" transform="translate(8,4)">
    <path d="M6 36V14h3v8l6-8h4l-7 9 7 13h-3l-6-10-1 1v9H6z"/>
    <path d="M26 14h3v7l4-4h4l-6 6 6 10h-4l-4-7-0 0-0 7h-3V14z"/>
  </g>
</svg>